name rise44.8762peak52.3436fall86.788.mot
datacolumns 19
datarows 38
range 6.254977 6.316639
endheader
time	ground_force1_vx	ground_force1_vy	ground_force1_vz	ground_force1_px	ground_force1_py	ground_force1_pz	ground_force2_vx	ground_force2_vy	ground_force2_vz	ground_force2_px	ground_force2_py	ground_force2_pz	ground_torque1_x	ground_torque1_y	ground_torque1_z	ground_torque2_x	ground_torque2_y	ground_torque2_z	
6.254977	-42.011039	211.013756	3.938896	0.001729	0.000000	0.124239	77.400246	598.866950	-47.076572	0.309871	0.000000	-0.080035	0.000000	10.893724	0.000000	0.000000	-14.947205	0.000000	
6.256644	-40.241504	201.802373	3.478669	0.001098	0.000000	0.123900	77.723522	605.073724	-47.567759	0.309070	0.000000	-0.080056	0.000000	10.410517	0.000000	0.000000	-15.094249	0.000000	
6.258304	-38.460659	192.772251	3.040988	0.000507	0.000000	0.123554	78.007468	611.234776	-48.034136	0.308266	0.000000	-0.080074	0.000000	9.926330	0.000000	0.000000	-15.229900	0.000000	
6.259979	-36.671563	183.942037	2.625158	-0.000041	0.000000	0.123203	78.252608	617.348094	-48.476545	0.307460	0.000000	-0.080090	0.000000	9.441804	0.000000	0.000000	-15.354731	0.000000	
6.261640	-34.876857	175.327243	2.230495	-0.000538	0.000000	0.122844	78.459500	623.411541	-48.895874	0.306651	0.000000	-0.080103	0.000000	8.957475	0.000000	0.000000	-15.469333	0.000000	
6.263311	-33.078743	166.938733	1.856384	-0.000977	0.000000	0.122477	78.628736	629.422851	-49.293045	0.305840	0.000000	-0.080113	0.000000	8.473773	0.000000	0.000000	-15.574314	0.000000	
6.264973	-31.279014	158.781247	1.502355	-0.001350	0.000000	0.122102	78.760935	635.379636	-49.669009	0.305027	0.000000	-0.080122	0.000000	7.991040	0.000000	0.000000	-15.670292	0.000000	
6.266642	-29.479131	150.852086	1.168153	-0.001649	0.000000	0.121716	78.856742	641.279381	-50.024743	0.304211	0.000000	-0.080128	0.000000	7.509557	0.000000	0.000000	-15.757893	0.000000	
6.268304	-27.680358	143.140143	0.853802	-0.001864	0.000000	0.121319	78.916827	647.119451	-50.361241	0.303393	0.000000	-0.080133	0.000000	7.029588	0.000000	0.000000	-15.837748	0.000000	
6.269971	-25.883952	135.625429	0.559660	-0.001982	0.000000	0.120908	78.941879	652.897091	-50.679510	0.302572	0.000000	-0.080137	0.000000	6.551436	0.000000	0.000000	-15.910488	0.000000	
6.271638	-24.091405	128.279244	0.286444	-0.001991	0.000000	0.120483	78.932604	658.609430	-50.980560	0.301748	0.000000	-0.080139	0.000000	6.075507	0.000000	0.000000	-15.976742	0.000000	
6.273304	-22.304720	121.065149	0.035237	-0.001875	0.000000	0.120040	78.889726	664.253485	-51.265406	0.300921	0.000000	-0.080140	0.000000	5.602389	0.000000	0.000000	-16.037135	0.000000	
6.274977	-20.526720	113.940792	-0.192551	-0.001617	0.000000	0.119578	78.813982	669.826170	-51.535056	0.300091	0.000000	-0.080140	0.000000	5.132925	0.000000	0.000000	-16.092280	0.000000	
6.276645	-18.761345	106.860639	-0.395255	-0.001196	0.000000	0.119094	78.706118	675.324292	-51.790507	0.299257	0.000000	-0.080139	0.000000	4.668289	0.000000	0.000000	-16.142783	0.000000	
6.278312	-17.013929	99.779528	-0.571068	-0.000588	0.000000	0.118584	78.566892	680.744570	-52.032742	0.298420	0.000000	-0.080138	0.000000	4.210047	0.000000	0.000000	-16.189231	0.000000	
6.279975	-15.291411	92.656906	-0.718194	0.000236	0.000000	0.118044	78.397067	686.083631	-52.262723	0.297579	0.000000	-0.080137	0.000000	3.760199	0.000000	0.000000	-16.232198	0.000000	
6.281645	-13.602455	85.461474	-0.835035	0.001311	0.000000	0.117470	78.197414	691.338025	-52.481389	0.296735	0.000000	-0.080136	0.000000	3.321195	0.000000	0.000000	-16.272237	0.000000	
6.283309	-11.957440	78.175889	-0.920398	0.002676	0.000000	0.116856	77.968707	696.504230	-52.689648	0.295886	0.000000	-0.080134	0.000000	2.895911	0.000000	0.000000	-16.309878	0.000000	
6.284995	-10.368305	70.801071	-0.973703	0.004381	0.000000	0.116195	77.711721	701.578666	-52.888375	0.295033	0.000000	-0.080133	0.000000	2.487591	0.000000	0.000000	-16.345629	0.000000	
6.286637	-8.848216	63.359595	-0.995181	0.006487	0.000000	0.115479	77.427235	706.557698	-53.078409	0.294175	0.000000	-0.080132	0.000000	2.099741	0.000000	0.000000	-16.379971	0.000000	
6.288312	-7.411064	55.897637	-0.986030	0.009069	0.000000	0.114697	77.116027	711.437655	-53.260548	0.293312	0.000000	-0.080132	0.000000	1.735978	0.000000	0.000000	-16.413358	0.000000	
6.289979	-6.070804	48.484976	-0.948514	0.012220	0.000000	0.113837	76.778873	716.214835	-53.435544	0.292444	0.000000	-0.080132	0.000000	1.399847	0.000000	0.000000	-16.446213	0.000000	
6.291645	-4.840658	41.212674	-0.885971	0.016060	0.000000	0.112881	76.416548	720.885521	-53.604106	0.291570	0.000000	-0.080134	0.000000	1.094605	0.000000	0.000000	-16.478931	0.000000	
6.293308	-3.732247	34.188235	-0.802729	0.020742	0.000000	0.111808	76.029824	725.445992	-53.766889	0.290691	0.000000	-0.080136	0.000000	0.822996	0.000000	0.000000	-16.511871	0.000000	
6.294979	-2.754718	27.528382	-0.703907	0.026469	0.000000	0.110591	75.619471	729.892536	-53.924499	0.289806	0.000000	-0.080139	0.000000	0.587038	0.000000	0.000000	-16.545360	0.000000	
6.296637	-1.913962	21.349969	-0.595130	0.000000	0.000000	0.000000	75.186252	734.221465	-54.077488	0.288915	0.000000	-0.080143	0.000000	0.198791	0.000000	0.000000	-16.579692	0.000000	
6.298311	-1.212010	15.760001	-0.482165	0.000000	0.000000	0.000000	74.730929	738.429128	-54.226351	0.288018	0.000000	-0.080149	0.000000	0.115460	0.000000	0.000000	-16.615124	0.000000	
6.299980	-0.646714	10.846123	-0.370538	0.000000	0.000000	0.000000	74.254256	742.511925	-54.371527	0.287113	0.000000	-0.080156	0.000000	0.050280	0.000000	0.000000	-16.651877	0.000000	
6.301642	-0.211756	6.668928	-0.265177	0.000000	0.000000	0.000000	73.756984	746.466321	-54.513400	0.286202	0.000000	-0.080165	0.000000	0.001977	0.000000	0.000000	-16.690139	0.000000	
6.303309	0.103002	3.257129	-0.170124	0.000000	0.000000	0.000000	73.239859	750.288862	-54.652291	0.285284	0.000000	-0.080175	0.000000	-0.031166	0.000000	0.000000	-16.730059	0.000000	
6.304976	0.000000	0.000000	0.000000	0.000000	0.000000	0.000000	72.703619	753.976186	-54.788466	0.284358	0.000000	-0.080186	0.000000	0.000000	0.000000	0.000000	-16.771750	0.000000	
6.306642	0.000000	0.000000	0.000000	0.000000	0.000000	0.000000	72.148999	757.525044	-54.922133	0.283424	0.000000	-0.080200	0.000000	0.000000	0.000000	0.000000	-16.815291	0.000000	
6.308311	0.000000	0.000000	0.000000	0.000000	0.000000	0.000000	71.576728	760.932307	-55.053442	0.282483	0.000000	-0.080215	0.000000	0.000000	0.000000	0.000000	-16.860726	0.000000	
6.309989	0.000000	0.000000	0.000000	0.000000	0.000000	0.000000	70.987530	764.194985	-55.182484	0.281534	0.000000	-0.080232	0.000000	0.000000	0.000000	0.000000	-16.908062	0.000000	
6.311642	0.000000	0.000000	0.000000	0.000000	0.000000	0.000000	70.382122	767.310238	-55.309300	0.280576	0.000000	-0.080251	0.000000	0.000000	0.000000	0.000000	-16.957275	0.000000	
6.313312	0.000000	0.000000	0.000000	0.000000	0.000000	0.000000	69.761219	770.275395	-55.433872	0.279611	0.000000	-0.080272	0.000000	0.000000	0.000000	0.000000	-17.008308	0.000000	
6.314971	0.000000	0.000000	0.000000	0.000000	0.000000	0.000000	69.125530	773.087959	-55.556133	0.278636	0.000000	-0.080295	0.000000	0.000000	0.000000	0.000000	-17.061072	0.000000	
6.316639	0.000000	0.000000	0.000000	0.000000	0.000000	0.000000	68.475759	775.745628	-55.675966	0.277653	0.000000	-0.080319	0.000000	0.000000	0.000000	0.000000	-17.115451	0.000000	
